<svg viewBox="0 0 140 140" xmlns="http://www.w3.org/2000/svg" version="1.1">
    <g transform="matrix(5.833333333333333,0,0,5.833333333333333,0,0)">
        <path d="M23,10.586,13.414,1a2,2,0,0,0-2.828,0L1,10.587a2,2,0,0,0,0,2.828H1L10.586,23a2,2,0,0,0,2.828,0L23,13.415A2,2,0,0,0,23,10.586ZM11.068,6.417a1,1,0,0,1,2,0v6a1,1,0,0,1-2,0Zm1.051,11.51h-.028a1.529,1.529,0,0,1-1.522-1.47,1.475,1.475,0,0,1,1.448-1.53h.028a1.527,1.527,0,0,1,1.522,1.47A1.475,1.475,0,0,1,12.119,17.927Z" fill="currentColor" stroke="none" stroke-linecap="round" stroke-linejoin="round" stroke-width="0"/>
    </g>
</svg>
