<svg width="158" height="158" viewBox="0 0 158 158" fill="none" xmlns="http://www.w3.org/2000/svg">
<g clip-path="url(#clip0)">
<path d="M0.779501 120.069C-0.917999 122.702 0.250751 124.85 3.3745 124.85H45.5482C48.6807 124.85 49.847 122.702 48.147 120.069L27.5533 88.2604C25.8533 85.6304 23.0745 85.6304 21.3733 88.2604L0.779501 120.069V120.069Z" fill="#224F7D"/>
<path d="M31.1121 82.773C29.3246 80.2043 29.2834 75.9767 31.0171 73.3717L37.8746 63.0892C39.6096 60.483 42.3821 56.1792 44.0259 53.523C44.0259 53.523 56.4934 33.4055 78.5034 33.0067C89.7834 32.7992 103.04 37.313 115.867 56.0492L116.012 56.2667C116.176 56.5017 117.696 58.8442 119.393 61.473L157.222 120.069C158.92 122.698 157.748 124.85 154.621 124.85H103.281C100.152 124.85 96.1946 122.702 94.4859 120.083L66.6334 77.368C64.9234 74.743 62.1271 74.743 60.4196 77.368L47.5371 97.1517C45.8296 99.773 42.9709 99.818 41.1846 97.2492L31.1121 82.773V82.773Z" fill="#224F7D"/>
</g>
<defs>
<clipPath id="clip0">
<rect width="158" height="158" fill="white"/>
</clipPath>
</defs>
</svg>
