<svg width="365" height="365" viewBox="0 0 365 365" fill="none" xmlns="http://www.w3.org/2000/svg">
<g clip-path="url(#clip0)">
<path d="M56.3 63.3L32 75.5V289L56.3 301.1L56.5 300.9V63.5L56.3 63.3Z" fill="#8C3123"/>
<path d="M186.5 270.1L56.3 301.1V63.3L186.5 93.6V270.1Z" fill="#E05243"/>
<path d="M127.8 221.6L183 228.6L183.3 227.8L183.7 137.3L183 136.6L127.8 143.5V221.6Z" fill="#8C3123"/>
<path d="M183 270.5L309.6 301.2L309.8 300.9V63.5L309.6 63.3L183 94V270.5Z" fill="#8C3123"/>
<path d="M238.2 221.6L183 228.6V136.6L238.2 143.5V221.6Z" fill="#E05243"/>
<path d="M238.2 105.7L183 115.8L127.8 105.7L182.9 91.3L238.2 105.7" fill="#5E1F18"/>
<path d="M238.2 259.3L183 249.1L127.8 259.3L182.9 274.7L238.2 259.3Z" fill="#F2B0A9"/>
<path d="M127.8 105.7L183 92.1L183.4 91.9V0.400002L183 0L127.8 27.6V105.7Z" fill="#8C3123"/>
<path d="M238.2 105.7L183 92.1V0L238.2 27.6V105.7Z" fill="#E05243"/>
<path d="M183 365L127.8 337.4V259.3L183 272.9L183.8 273.9L183.6 363.4L183 365" fill="#8C3123"/>
<path d="M183 365L238.2 337.4V259.3L183 272.9V365Z" fill="#E05243"/>
<path d="M309.6 63.3L334 75.5V289L309.6 301.2V63.3Z" fill="#E05243"/>
</g>
<defs>
<clipPath id="clip0">
<rect width="365" height="365" fill="white"/>
</clipPath>
</defs>
</svg>
